<mxfile host="app.diagrams.net" agent="Mozilla/5.0 (Windows NT 10.0; Win64; x64) AppleWebKit/537.36 (KHTML, like Gecko) Chrome/135.0.0.0 Safari/537.36" version="26.2.14">
  <diagram name="PÃ¡gina-1" id="X9LQhpLwk_J4k-DrzsR-">
    <mxGraphModel dx="1345" dy="571" grid="1" gridSize="10" guides="1" tooltips="1" connect="1" arrows="1" fold="1" page="1" pageScale="1" pageWidth="827" pageHeight="1169" math="0" shadow="0">
      <root>
        <mxCell id="0" />
        <mxCell id="1" parent="0" />
        <object label="events" id="epjEsvlfsnYvN3iABz49-60">
          <mxCell style="swimlane;fontStyle=1;align=center;verticalAlign=top;childLayout=stackLayout;horizontal=1;startSize=26;horizontalStack=0;resizeParent=1;resizeParentMax=0;resizeLast=0;collapsible=1;marginBottom=0;whiteSpace=wrap;html=1;" parent="1" vertex="1">
            <mxGeometry x="30" y="20" width="160" height="358" as="geometry" />
          </mxCell>
        </object>
        <mxCell id="epjEsvlfsnYvN3iABz49-61" value="&lt;font style=&quot;font-size: 10px;&quot;&gt;+ id: number (Auto) (PK)&lt;/font&gt;" style="text;strokeColor=none;fillColor=none;align=left;verticalAlign=top;spacingLeft=4;spacingRight=4;overflow=hidden;rotatable=0;points=[[0,0.5],[1,0.5]];portConstraint=eastwest;whiteSpace=wrap;html=1;" parent="epjEsvlfsnYvN3iABz49-60" vertex="1">
          <mxGeometry y="26" width="160" height="26" as="geometry" />
        </mxCell>
        <mxCell id="epjEsvlfsnYvN3iABz49-89" value="" style="line;strokeWidth=1;fillColor=none;align=left;verticalAlign=middle;spacingTop=-1;spacingLeft=3;spacingRight=3;rotatable=0;labelPosition=right;points=[];portConstraint=eastwest;strokeColor=inherit;" parent="epjEsvlfsnYvN3iABz49-60" vertex="1">
          <mxGeometry y="52" width="160" height="8" as="geometry" />
        </mxCell>
        <mxCell id="epjEsvlfsnYvN3iABz49-88" value="&lt;font style=&quot;font-size: 10px;&quot;&gt;+ titulo: string&lt;/font&gt;" style="text;strokeColor=none;fillColor=none;align=left;verticalAlign=top;spacingLeft=4;spacingRight=4;overflow=hidden;rotatable=0;points=[[0,0.5],[1,0.5]];portConstraint=eastwest;whiteSpace=wrap;html=1;" parent="epjEsvlfsnYvN3iABz49-60" vertex="1">
          <mxGeometry y="60" width="160" height="26" as="geometry" />
        </mxCell>
        <mxCell id="epjEsvlfsnYvN3iABz49-62" value="" style="line;strokeWidth=1;fillColor=none;align=left;verticalAlign=middle;spacingTop=-1;spacingLeft=3;spacingRight=3;rotatable=0;labelPosition=right;points=[];portConstraint=eastwest;strokeColor=inherit;" parent="epjEsvlfsnYvN3iABz49-60" vertex="1">
          <mxGeometry y="86" width="160" height="8" as="geometry" />
        </mxCell>
        <mxCell id="epjEsvlfsnYvN3iABz49-63" value="&lt;font style=&quot;font-size: 10px;&quot;&gt;+ fecha: date (dd/mm/yyyy)&lt;/font&gt;" style="text;strokeColor=none;fillColor=none;align=left;verticalAlign=top;spacingLeft=4;spacingRight=4;overflow=hidden;rotatable=0;points=[[0,0.5],[1,0.5]];portConstraint=eastwest;whiteSpace=wrap;html=1;" parent="epjEsvlfsnYvN3iABz49-60" vertex="1">
          <mxGeometry y="94" width="160" height="26" as="geometry" />
        </mxCell>
        <mxCell id="epjEsvlfsnYvN3iABz49-65" value="" style="line;strokeWidth=1;fillColor=none;align=left;verticalAlign=middle;spacingTop=-1;spacingLeft=3;spacingRight=3;rotatable=0;labelPosition=right;points=[];portConstraint=eastwest;strokeColor=inherit;" parent="epjEsvlfsnYvN3iABz49-60" vertex="1">
          <mxGeometry y="120" width="160" height="8" as="geometry" />
        </mxCell>
        <mxCell id="epjEsvlfsnYvN3iABz49-64" value="&lt;font style=&quot;font-size: 10px;&quot;&gt;+ direccion: string&lt;/font&gt;" style="text;strokeColor=none;fillColor=none;align=left;verticalAlign=top;spacingLeft=4;spacingRight=4;overflow=hidden;rotatable=0;points=[[0,0.5],[1,0.5]];portConstraint=eastwest;whiteSpace=wrap;html=1;" parent="epjEsvlfsnYvN3iABz49-60" vertex="1">
          <mxGeometry y="128" width="160" height="26" as="geometry" />
        </mxCell>
        <mxCell id="epjEsvlfsnYvN3iABz49-70" value="" style="line;strokeWidth=1;fillColor=none;align=left;verticalAlign=middle;spacingTop=-1;spacingLeft=3;spacingRight=3;rotatable=0;labelPosition=right;points=[];portConstraint=eastwest;strokeColor=inherit;" parent="epjEsvlfsnYvN3iABz49-60" vertex="1">
          <mxGeometry y="154" width="160" height="8" as="geometry" />
        </mxCell>
        <mxCell id="epjEsvlfsnYvN3iABz49-66" value="&lt;font style=&quot;font-size: 10px;&quot;&gt;+ maps: string&lt;/font&gt;" style="text;strokeColor=none;fillColor=none;align=left;verticalAlign=top;spacingLeft=4;spacingRight=4;overflow=hidden;rotatable=0;points=[[0,0.5],[1,0.5]];portConstraint=eastwest;whiteSpace=wrap;html=1;" parent="epjEsvlfsnYvN3iABz49-60" vertex="1">
          <mxGeometry y="162" width="160" height="26" as="geometry" />
        </mxCell>
        <mxCell id="epjEsvlfsnYvN3iABz49-71" value="" style="line;strokeWidth=1;fillColor=none;align=left;verticalAlign=middle;spacingTop=-1;spacingLeft=3;spacingRight=3;rotatable=0;labelPosition=right;points=[];portConstraint=eastwest;strokeColor=inherit;" parent="epjEsvlfsnYvN3iABz49-60" vertex="1">
          <mxGeometry y="188" width="160" height="8" as="geometry" />
        </mxCell>
        <mxCell id="epjEsvlfsnYvN3iABz49-68" value="&lt;font style=&quot;font-size: 10px;&quot;&gt;+ gastoTotal: number&lt;/font&gt;" style="text;strokeColor=none;fillColor=none;align=left;verticalAlign=top;spacingLeft=4;spacingRight=4;overflow=hidden;rotatable=0;points=[[0,0.5],[1,0.5]];portConstraint=eastwest;whiteSpace=wrap;html=1;" parent="epjEsvlfsnYvN3iABz49-60" vertex="1">
          <mxGeometry y="196" width="160" height="26" as="geometry" />
        </mxCell>
        <mxCell id="epjEsvlfsnYvN3iABz49-72" value="" style="line;strokeWidth=1;fillColor=none;align=left;verticalAlign=middle;spacingTop=-1;spacingLeft=3;spacingRight=3;rotatable=0;labelPosition=right;points=[];portConstraint=eastwest;strokeColor=inherit;" parent="epjEsvlfsnYvN3iABz49-60" vertex="1">
          <mxGeometry y="222" width="160" height="8" as="geometry" />
        </mxCell>
        <mxCell id="epjEsvlfsnYvN3iABz49-69" value="&lt;font style=&quot;font-size: 10px;&quot;&gt;+ gastoCU: number&lt;/font&gt;" style="text;strokeColor=none;fillColor=none;align=left;verticalAlign=top;spacingLeft=4;spacingRight=4;overflow=hidden;rotatable=0;points=[[0,0.5],[1,0.5]];portConstraint=eastwest;whiteSpace=wrap;html=1;" parent="epjEsvlfsnYvN3iABz49-60" vertex="1">
          <mxGeometry y="230" width="160" height="26" as="geometry" />
        </mxCell>
        <mxCell id="epjEsvlfsnYvN3iABz49-129" value="" style="line;strokeWidth=1;fillColor=none;align=left;verticalAlign=middle;spacingTop=-1;spacingLeft=3;spacingRight=3;rotatable=0;labelPosition=right;points=[];portConstraint=eastwest;strokeColor=inherit;" parent="epjEsvlfsnYvN3iABz49-60" vertex="1">
          <mxGeometry y="256" width="160" height="8" as="geometry" />
        </mxCell>
        <mxCell id="epjEsvlfsnYvN3iABz49-112" value="&lt;font style=&quot;font-size: 10px;&quot;&gt;+ participantesNro: number&lt;/font&gt;" style="text;strokeColor=none;fillColor=none;align=left;verticalAlign=top;spacingLeft=4;spacingRight=4;overflow=hidden;rotatable=0;points=[[0,0.5],[1,0.5]];portConstraint=eastwest;whiteSpace=wrap;html=1;" parent="epjEsvlfsnYvN3iABz49-60" vertex="1">
          <mxGeometry y="264" width="160" height="26" as="geometry" />
        </mxCell>
        <mxCell id="QIL2KwB3fmJdMeqVmAWB-3" value="" style="line;strokeWidth=1;fillColor=none;align=left;verticalAlign=middle;spacingTop=-1;spacingLeft=3;spacingRight=3;rotatable=0;labelPosition=right;points=[];portConstraint=eastwest;strokeColor=inherit;" parent="epjEsvlfsnYvN3iABz49-60" vertex="1">
          <mxGeometry y="290" width="160" height="8" as="geometry" />
        </mxCell>
        <mxCell id="QIL2KwB3fmJdMeqVmAWB-1" value="&lt;font style=&quot;font-size: 10px;&quot;&gt;+ whatsappEnvio: boolean&lt;/font&gt;" style="text;strokeColor=none;fillColor=none;align=left;verticalAlign=top;spacingLeft=4;spacingRight=4;overflow=hidden;rotatable=0;points=[[0,0.5],[1,0.5]];portConstraint=eastwest;whiteSpace=wrap;html=1;" parent="epjEsvlfsnYvN3iABz49-60" vertex="1">
          <mxGeometry y="298" width="160" height="26" as="geometry" />
        </mxCell>
        <mxCell id="QIL2KwB3fmJdMeqVmAWB-4" value="" style="line;strokeWidth=1;fillColor=none;align=left;verticalAlign=middle;spacingTop=-1;spacingLeft=3;spacingRight=3;rotatable=0;labelPosition=right;points=[];portConstraint=eastwest;strokeColor=inherit;" parent="epjEsvlfsnYvN3iABz49-60" vertex="1">
          <mxGeometry y="324" width="160" height="8" as="geometry" />
        </mxCell>
        <mxCell id="yLq7n8xMrS5BI-6w-MZ7-3" value="&lt;font style=&quot;font-size: 10px;&quot;&gt;+ estadoEvento: string&lt;/font&gt;" style="text;strokeColor=none;fillColor=none;align=left;verticalAlign=top;spacingLeft=4;spacingRight=4;overflow=hidden;rotatable=0;points=[[0,0.5],[1,0.5]];portConstraint=eastwest;whiteSpace=wrap;html=1;" parent="epjEsvlfsnYvN3iABz49-60" vertex="1">
          <mxGeometry y="332" width="160" height="26" as="geometry" />
        </mxCell>
        <object label="&lt;div style=&quot;font-family: Consolas, &amp;quot;Courier New&amp;quot;, monospace; font-weight: normal; font-size: 14px; line-height: 19px; white-space: pre;&quot;&gt;&lt;div style=&quot;line-height: 19px;&quot;&gt;&lt;span style=&quot;font-family: Helvetica; font-size: 12px; font-weight: 700; white-space: normal;&quot;&gt;participants&lt;/span&gt;&lt;/div&gt;&lt;/div&gt;" id="epjEsvlfsnYvN3iABz49-74">
          <mxCell style="swimlane;fontStyle=1;align=center;verticalAlign=top;childLayout=stackLayout;horizontal=1;startSize=26;horizontalStack=0;resizeParent=1;resizeParentMax=0;resizeLast=0;collapsible=1;marginBottom=0;whiteSpace=wrap;html=1;" parent="1" vertex="1">
            <mxGeometry x="600" y="30" width="190" height="188" as="geometry" />
          </mxCell>
        </object>
        <mxCell id="epjEsvlfsnYvN3iABz49-83" value="&lt;font style=&quot;font-size: 10px;&quot;&gt;+ id: number (Auto) (PK)&lt;/font&gt;" style="text;strokeColor=none;fillColor=none;align=left;verticalAlign=top;spacingLeft=4;spacingRight=4;overflow=hidden;rotatable=0;points=[[0,0.5],[1,0.5]];portConstraint=eastwest;whiteSpace=wrap;html=1;" parent="epjEsvlfsnYvN3iABz49-74" vertex="1">
          <mxGeometry y="26" width="190" height="26" as="geometry" />
        </mxCell>
        <mxCell id="epjEsvlfsnYvN3iABz49-90" value="" style="line;strokeWidth=1;fillColor=none;align=left;verticalAlign=middle;spacingTop=-1;spacingLeft=3;spacingRight=3;rotatable=0;labelPosition=right;points=[];portConstraint=eastwest;strokeColor=inherit;" parent="epjEsvlfsnYvN3iABz49-74" vertex="1">
          <mxGeometry y="52" width="190" height="8" as="geometry" />
        </mxCell>
        <mxCell id="epjEsvlfsnYvN3iABz49-75" value="&lt;font style=&quot;font-size: 10px;&quot;&gt;+ nombre: string&lt;/font&gt;" style="text;strokeColor=none;fillColor=none;align=left;verticalAlign=top;spacingLeft=4;spacingRight=4;overflow=hidden;rotatable=0;points=[[0,0.5],[1,0.5]];portConstraint=eastwest;whiteSpace=wrap;html=1;" parent="epjEsvlfsnYvN3iABz49-74" vertex="1">
          <mxGeometry y="60" width="190" height="26" as="geometry" />
        </mxCell>
        <mxCell id="epjEsvlfsnYvN3iABz49-76" value="" style="line;strokeWidth=1;fillColor=none;align=left;verticalAlign=middle;spacingTop=-1;spacingLeft=3;spacingRight=3;rotatable=0;labelPosition=right;points=[];portConstraint=eastwest;strokeColor=inherit;" parent="epjEsvlfsnYvN3iABz49-74" vertex="1">
          <mxGeometry y="86" width="190" height="8" as="geometry" />
        </mxCell>
        <mxCell id="epjEsvlfsnYvN3iABz49-77" value="&lt;font style=&quot;font-size: 10px;&quot;&gt;+ email: email&lt;/font&gt;" style="text;strokeColor=none;fillColor=none;align=left;verticalAlign=top;spacingLeft=4;spacingRight=4;overflow=hidden;rotatable=0;points=[[0,0.5],[1,0.5]];portConstraint=eastwest;whiteSpace=wrap;html=1;" parent="epjEsvlfsnYvN3iABz49-74" vertex="1">
          <mxGeometry y="94" width="190" height="26" as="geometry" />
        </mxCell>
        <mxCell id="epjEsvlfsnYvN3iABz49-78" value="" style="line;strokeWidth=1;fillColor=none;align=left;verticalAlign=middle;spacingTop=-1;spacingLeft=3;spacingRight=3;rotatable=0;labelPosition=right;points=[];portConstraint=eastwest;strokeColor=inherit;" parent="epjEsvlfsnYvN3iABz49-74" vertex="1">
          <mxGeometry y="120" width="190" height="8" as="geometry" />
        </mxCell>
        <mxCell id="epjEsvlfsnYvN3iABz49-79" value="&lt;font style=&quot;font-size: 10px;&quot;&gt;+ aliasCBU: string&lt;/font&gt;" style="text;strokeColor=none;fillColor=none;align=left;verticalAlign=top;spacingLeft=4;spacingRight=4;overflow=hidden;rotatable=0;points=[[0,0.5],[1,0.5]];portConstraint=eastwest;whiteSpace=wrap;html=1;" parent="epjEsvlfsnYvN3iABz49-74" vertex="1">
          <mxGeometry y="128" width="190" height="26" as="geometry" />
        </mxCell>
        <mxCell id="epjEsvlfsnYvN3iABz49-80" value="" style="line;strokeWidth=1;fillColor=none;align=left;verticalAlign=middle;spacingTop=-1;spacingLeft=3;spacingRight=3;rotatable=0;labelPosition=right;points=[];portConstraint=eastwest;strokeColor=inherit;" parent="epjEsvlfsnYvN3iABz49-74" vertex="1">
          <mxGeometry y="154" width="190" height="8" as="geometry" />
        </mxCell>
        <mxCell id="epjEsvlfsnYvN3iABz49-81" value="&lt;font style=&quot;font-size: 10px;&quot;&gt;+ celular: number&lt;/font&gt;" style="text;strokeColor=none;fillColor=none;align=left;verticalAlign=top;spacingLeft=4;spacingRight=4;overflow=hidden;rotatable=0;points=[[0,0.5],[1,0.5]];portConstraint=eastwest;whiteSpace=wrap;html=1;" parent="epjEsvlfsnYvN3iABz49-74" vertex="1">
          <mxGeometry y="162" width="190" height="26" as="geometry" />
        </mxCell>
        <object label="expense" id="epjEsvlfsnYvN3iABz49-91">
          <mxCell style="swimlane;fontStyle=1;align=center;verticalAlign=top;childLayout=stackLayout;horizontal=1;startSize=26;horizontalStack=0;resizeParent=1;resizeParentMax=0;resizeLast=0;collapsible=1;marginBottom=0;whiteSpace=wrap;html=1;" parent="1" vertex="1">
            <mxGeometry x="600" y="240" width="190" height="188" as="geometry" />
          </mxCell>
        </object>
        <mxCell id="epjEsvlfsnYvN3iABz49-92" value="&lt;font style=&quot;font-size: 10px;&quot;&gt;+ id: number (Auto) (PK)&lt;/font&gt;" style="text;strokeColor=none;fillColor=none;align=left;verticalAlign=top;spacingLeft=4;spacingRight=4;overflow=hidden;rotatable=0;points=[[0,0.5],[1,0.5]];portConstraint=eastwest;whiteSpace=wrap;html=1;" parent="epjEsvlfsnYvN3iABz49-91" vertex="1">
          <mxGeometry y="26" width="190" height="26" as="geometry" />
        </mxCell>
        <mxCell id="epjEsvlfsnYvN3iABz49-93" value="" style="line;strokeWidth=1;fillColor=none;align=left;verticalAlign=middle;spacingTop=-1;spacingLeft=3;spacingRight=3;rotatable=0;labelPosition=right;points=[];portConstraint=eastwest;strokeColor=inherit;" parent="epjEsvlfsnYvN3iABz49-91" vertex="1">
          <mxGeometry y="52" width="190" height="8" as="geometry" />
        </mxCell>
        <mxCell id="epjEsvlfsnYvN3iABz49-94" value="&lt;font style=&quot;font-size: 10px;&quot;&gt;+ descripcion: string&lt;/font&gt;" style="text;strokeColor=none;fillColor=none;align=left;verticalAlign=top;spacingLeft=4;spacingRight=4;overflow=hidden;rotatable=0;points=[[0,0.5],[1,0.5]];portConstraint=eastwest;whiteSpace=wrap;html=1;" parent="epjEsvlfsnYvN3iABz49-91" vertex="1">
          <mxGeometry y="60" width="190" height="26" as="geometry" />
        </mxCell>
        <mxCell id="epjEsvlfsnYvN3iABz49-95" value="" style="line;strokeWidth=1;fillColor=none;align=left;verticalAlign=middle;spacingTop=-1;spacingLeft=3;spacingRight=3;rotatable=0;labelPosition=right;points=[];portConstraint=eastwest;strokeColor=inherit;" parent="epjEsvlfsnYvN3iABz49-91" vertex="1">
          <mxGeometry y="86" width="190" height="8" as="geometry" />
        </mxCell>
        <mxCell id="epjEsvlfsnYvN3iABz49-96" value="&lt;font style=&quot;font-size: 10px;&quot;&gt;+ monto: number&lt;/font&gt;" style="text;strokeColor=none;fillColor=none;align=left;verticalAlign=top;spacingLeft=4;spacingRight=4;overflow=hidden;rotatable=0;points=[[0,0.5],[1,0.5]];portConstraint=eastwest;whiteSpace=wrap;html=1;" parent="epjEsvlfsnYvN3iABz49-91" vertex="1">
          <mxGeometry y="94" width="190" height="26" as="geometry" />
        </mxCell>
        <mxCell id="epjEsvlfsnYvN3iABz49-97" value="" style="line;strokeWidth=1;fillColor=none;align=left;verticalAlign=middle;spacingTop=-1;spacingLeft=3;spacingRight=3;rotatable=0;labelPosition=right;points=[];portConstraint=eastwest;strokeColor=inherit;" parent="epjEsvlfsnYvN3iABz49-91" vertex="1">
          <mxGeometry y="120" width="190" height="8" as="geometry" />
        </mxCell>
        <mxCell id="epjEsvlfsnYvN3iABz49-98" value="&lt;font style=&quot;font-size: 10px;&quot;&gt;+ eventoParticipanteID: number (SK)&lt;/font&gt;" style="text;strokeColor=none;fillColor=none;align=left;verticalAlign=top;spacingLeft=4;spacingRight=4;overflow=hidden;rotatable=0;points=[[0,0.5],[1,0.5]];portConstraint=eastwest;whiteSpace=wrap;html=1;" parent="epjEsvlfsnYvN3iABz49-91" vertex="1">
          <mxGeometry y="128" width="190" height="26" as="geometry" />
        </mxCell>
        <mxCell id="yLq7n8xMrS5BI-6w-MZ7-6" value="" style="line;strokeWidth=1;fillColor=none;align=left;verticalAlign=middle;spacingTop=-1;spacingLeft=3;spacingRight=3;rotatable=0;labelPosition=right;points=[];portConstraint=eastwest;strokeColor=inherit;" parent="epjEsvlfsnYvN3iABz49-91" vertex="1">
          <mxGeometry y="154" width="190" height="8" as="geometry" />
        </mxCell>
        <mxCell id="epjEsvlfsnYvN3iABz49-100" value="&lt;font style=&quot;font-size: 10px;&quot;&gt;+ fecha: date (dd/mm/yyyy)&lt;/font&gt;" style="text;strokeColor=none;fillColor=none;align=left;verticalAlign=top;spacingLeft=4;spacingRight=4;overflow=hidden;rotatable=0;points=[[0,0.5],[1,0.5]];portConstraint=eastwest;whiteSpace=wrap;html=1;" parent="epjEsvlfsnYvN3iABz49-91" vertex="1">
          <mxGeometry y="162" width="190" height="26" as="geometry" />
        </mxCell>
        <object label="events_participants" id="krr-dMTPvHWVqTSfd1r--3">
          <mxCell style="swimlane;fontStyle=1;align=center;verticalAlign=top;childLayout=stackLayout;horizontal=1;startSize=26;horizontalStack=0;resizeParent=1;resizeParentMax=0;resizeLast=0;collapsible=1;marginBottom=0;whiteSpace=wrap;html=1;" parent="1" vertex="1">
            <mxGeometry x="270" y="30" width="210" height="154" as="geometry" />
          </mxCell>
        </object>
        <mxCell id="krr-dMTPvHWVqTSfd1r--4" value="&lt;font style=&quot;font-size: 10px;&quot;&gt;+ participanteId: number (SK)&lt;/font&gt;" style="text;strokeColor=none;fillColor=none;align=left;verticalAlign=top;spacingLeft=4;spacingRight=4;overflow=hidden;rotatable=0;points=[[0,0.5],[1,0.5]];portConstraint=eastwest;whiteSpace=wrap;html=1;" parent="krr-dMTPvHWVqTSfd1r--3" vertex="1">
          <mxGeometry y="26" width="210" height="26" as="geometry" />
        </mxCell>
        <mxCell id="krr-dMTPvHWVqTSfd1r--5" value="" style="line;strokeWidth=1;fillColor=none;align=left;verticalAlign=middle;spacingTop=-1;spacingLeft=3;spacingRight=3;rotatable=0;labelPosition=right;points=[];portConstraint=eastwest;strokeColor=inherit;" parent="krr-dMTPvHWVqTSfd1r--3" vertex="1">
          <mxGeometry y="52" width="210" height="8" as="geometry" />
        </mxCell>
        <mxCell id="krr-dMTPvHWVqTSfd1r--15" value="&lt;font style=&quot;font-size: 10px;&quot;&gt;+ id: number (Auto) (PK)&lt;/font&gt;" style="text;strokeColor=none;fillColor=none;align=left;verticalAlign=top;spacingLeft=4;spacingRight=4;overflow=hidden;rotatable=0;points=[[0,0.5],[1,0.5]];portConstraint=eastwest;whiteSpace=wrap;html=1;" parent="krr-dMTPvHWVqTSfd1r--3" vertex="1">
          <mxGeometry y="60" width="210" height="26" as="geometry" />
        </mxCell>
        <mxCell id="qj-4xgQQlzeq8Po7e8f2-2" value="" style="line;strokeWidth=1;fillColor=none;align=left;verticalAlign=middle;spacingTop=-1;spacingLeft=3;spacingRight=3;rotatable=0;labelPosition=right;points=[];portConstraint=eastwest;strokeColor=inherit;" vertex="1" parent="krr-dMTPvHWVqTSfd1r--3">
          <mxGeometry y="86" width="210" height="8" as="geometry" />
        </mxCell>
        <mxCell id="qj-4xgQQlzeq8Po7e8f2-1" value="&lt;font style=&quot;font-size: 10px;&quot;&gt;+ cantParticipantes: number&lt;/font&gt;" style="text;strokeColor=none;fillColor=none;align=left;verticalAlign=top;spacingLeft=4;spacingRight=4;overflow=hidden;rotatable=0;points=[[0,0.5],[1,0.5]];portConstraint=eastwest;whiteSpace=wrap;html=1;" vertex="1" parent="krr-dMTPvHWVqTSfd1r--3">
          <mxGeometry y="94" width="210" height="26" as="geometry" />
        </mxCell>
        <mxCell id="krr-dMTPvHWVqTSfd1r--17" value="" style="line;strokeWidth=1;fillColor=none;align=left;verticalAlign=middle;spacingTop=-1;spacingLeft=3;spacingRight=3;rotatable=0;labelPosition=right;points=[];portConstraint=eastwest;strokeColor=inherit;" parent="krr-dMTPvHWVqTSfd1r--3" vertex="1">
          <mxGeometry y="120" width="210" height="8" as="geometry" />
        </mxCell>
        <mxCell id="krr-dMTPvHWVqTSfd1r--6" value="&lt;font style=&quot;font-size: 10px;&quot;&gt;+ eventoId: number (SK)&lt;/font&gt;" style="text;strokeColor=none;fillColor=none;align=left;verticalAlign=top;spacingLeft=4;spacingRight=4;overflow=hidden;rotatable=0;points=[[0,0.5],[1,0.5]];portConstraint=eastwest;whiteSpace=wrap;html=1;" parent="krr-dMTPvHWVqTSfd1r--3" vertex="1">
          <mxGeometry y="128" width="210" height="26" as="geometry" />
        </mxCell>
        <object label="payment_expense" id="S2vk2JNNVP6QqmYASaXY-1">
          <mxCell style="swimlane;fontStyle=1;align=center;verticalAlign=top;childLayout=stackLayout;horizontal=1;startSize=26;horizontalStack=0;resizeParent=1;resizeParentMax=0;resizeLast=0;collapsible=1;marginBottom=0;whiteSpace=wrap;html=1;" parent="1" vertex="1">
            <mxGeometry x="250" y="240" width="250" height="188" as="geometry" />
          </mxCell>
        </object>
        <mxCell id="S2vk2JNNVP6QqmYASaXY-2" value="&lt;font style=&quot;font-size: 10px;&quot;&gt;+ id:&amp;nbsp;&lt;/font&gt;&lt;span style=&quot;font-size: 10px;&quot;&gt;number (Auto) (PK)&lt;/span&gt;" style="text;strokeColor=none;fillColor=none;align=left;verticalAlign=top;spacingLeft=4;spacingRight=4;overflow=hidden;rotatable=0;points=[[0,0.5],[1,0.5]];portConstraint=eastwest;whiteSpace=wrap;html=1;" parent="S2vk2JNNVP6QqmYASaXY-1" vertex="1">
          <mxGeometry y="26" width="250" height="26" as="geometry" />
        </mxCell>
        <mxCell id="S2vk2JNNVP6QqmYASaXY-3" value="" style="line;strokeWidth=1;fillColor=none;align=left;verticalAlign=middle;spacingTop=-1;spacingLeft=3;spacingRight=3;rotatable=0;labelPosition=right;points=[];portConstraint=eastwest;strokeColor=inherit;" parent="S2vk2JNNVP6QqmYASaXY-1" vertex="1">
          <mxGeometry y="52" width="250" height="8" as="geometry" />
        </mxCell>
        <mxCell id="S2vk2JNNVP6QqmYASaXY-4" value="&lt;font style=&quot;font-size: 10px;&quot;&gt;+ gastoId: number (SK)&lt;/font&gt;" style="text;strokeColor=none;fillColor=none;align=left;verticalAlign=top;spacingLeft=4;spacingRight=4;overflow=hidden;rotatable=0;points=[[0,0.5],[1,0.5]];portConstraint=eastwest;whiteSpace=wrap;html=1;" parent="S2vk2JNNVP6QqmYASaXY-1" vertex="1">
          <mxGeometry y="60" width="250" height="26" as="geometry" />
        </mxCell>
        <mxCell id="S2vk2JNNVP6QqmYASaXY-5" value="" style="line;strokeWidth=1;fillColor=none;align=left;verticalAlign=middle;spacingTop=-1;spacingLeft=3;spacingRight=3;rotatable=0;labelPosition=right;points=[];portConstraint=eastwest;strokeColor=inherit;" parent="S2vk2JNNVP6QqmYASaXY-1" vertex="1">
          <mxGeometry y="86" width="250" height="8" as="geometry" />
        </mxCell>
        <mxCell id="S2vk2JNNVP6QqmYASaXY-7" value="&lt;font style=&quot;font-size: 10px;&quot;&gt;+ eventoParticipanteId: number (SK)&lt;/font&gt;" style="text;strokeColor=none;fillColor=none;align=left;verticalAlign=top;spacingLeft=4;spacingRight=4;overflow=hidden;rotatable=0;points=[[0,0.5],[1,0.5]];portConstraint=eastwest;whiteSpace=wrap;html=1;" parent="S2vk2JNNVP6QqmYASaXY-1" vertex="1">
          <mxGeometry y="94" width="250" height="26" as="geometry" />
        </mxCell>
        <mxCell id="S2vk2JNNVP6QqmYASaXY-8" value="" style="line;strokeWidth=1;fillColor=none;align=left;verticalAlign=middle;spacingTop=-1;spacingLeft=3;spacingRight=3;rotatable=0;labelPosition=right;points=[];portConstraint=eastwest;strokeColor=inherit;" parent="S2vk2JNNVP6QqmYASaXY-1" vertex="1">
          <mxGeometry y="120" width="250" height="8" as="geometry" />
        </mxCell>
        <mxCell id="vJwvaSScdZ3kgVCBI_No-1" value="&lt;font style=&quot;font-size: 10px;&quot;&gt;+ monto: number (SK)&lt;/font&gt;" style="text;strokeColor=none;fillColor=none;align=left;verticalAlign=top;spacingLeft=4;spacingRight=4;overflow=hidden;rotatable=0;points=[[0,0.5],[1,0.5]];portConstraint=eastwest;whiteSpace=wrap;html=1;" parent="S2vk2JNNVP6QqmYASaXY-1" vertex="1">
          <mxGeometry y="128" width="250" height="26" as="geometry" />
        </mxCell>
        <mxCell id="vJwvaSScdZ3kgVCBI_No-2" value="" style="line;strokeWidth=1;fillColor=none;align=left;verticalAlign=middle;spacingTop=-1;spacingLeft=3;spacingRight=3;rotatable=0;labelPosition=right;points=[];portConstraint=eastwest;strokeColor=inherit;" parent="S2vk2JNNVP6QqmYASaXY-1" vertex="1">
          <mxGeometry y="154" width="250" height="8" as="geometry" />
        </mxCell>
        <mxCell id="S2vk2JNNVP6QqmYASaXY-6" value="&lt;font style=&quot;font-size: 10px;&quot;&gt;+ estadoPago: boolean&lt;/font&gt;" style="text;strokeColor=none;fillColor=none;align=left;verticalAlign=top;spacingLeft=4;spacingRight=4;overflow=hidden;rotatable=0;points=[[0,0.5],[1,0.5]];portConstraint=eastwest;whiteSpace=wrap;html=1;" parent="S2vk2JNNVP6QqmYASaXY-1" vertex="1">
          <mxGeometry y="162" width="250" height="26" as="geometry" />
        </mxCell>
        <mxCell id="yLq7n8xMrS5BI-6w-MZ7-11" style="edgeStyle=orthogonalEdgeStyle;rounded=0;orthogonalLoop=1;jettySize=auto;html=1;endArrow=oval;endFill=0;startArrow=oval;startFill=0;" parent="1" source="epjEsvlfsnYvN3iABz49-61" target="krr-dMTPvHWVqTSfd1r--6" edge="1">
          <mxGeometry relative="1" as="geometry" />
        </mxCell>
        <mxCell id="yLq7n8xMrS5BI-6w-MZ7-12" style="edgeStyle=orthogonalEdgeStyle;rounded=0;orthogonalLoop=1;jettySize=auto;html=1;entryX=1;entryY=0.5;entryDx=0;entryDy=0;endArrow=oval;endFill=0;startArrow=oval;startFill=0;" parent="1" source="epjEsvlfsnYvN3iABz49-83" target="krr-dMTPvHWVqTSfd1r--4" edge="1">
          <mxGeometry relative="1" as="geometry" />
        </mxCell>
        <mxCell id="zCh-krkuSQIpDNPjbqcc-1" style="edgeStyle=orthogonalEdgeStyle;rounded=0;orthogonalLoop=1;jettySize=auto;html=1;exitX=1;exitY=0.5;exitDx=0;exitDy=0;entryX=0;entryY=0.5;entryDx=0;entryDy=0;endArrow=oval;endFill=0;startArrow=oval;startFill=0;" parent="1" source="krr-dMTPvHWVqTSfd1r--15" target="epjEsvlfsnYvN3iABz49-98" edge="1">
          <mxGeometry relative="1" as="geometry" />
        </mxCell>
        <mxCell id="zCh-krkuSQIpDNPjbqcc-2" style="edgeStyle=orthogonalEdgeStyle;rounded=0;orthogonalLoop=1;jettySize=auto;html=1;exitX=0;exitY=0.5;exitDx=0;exitDy=0;" parent="1" source="epjEsvlfsnYvN3iABz49-92" target="S2vk2JNNVP6QqmYASaXY-4" edge="1">
          <mxGeometry relative="1" as="geometry" />
        </mxCell>
        <mxCell id="zCh-krkuSQIpDNPjbqcc-3" style="edgeStyle=orthogonalEdgeStyle;rounded=0;orthogonalLoop=1;jettySize=auto;html=1;" parent="1" source="krr-dMTPvHWVqTSfd1r--15" target="S2vk2JNNVP6QqmYASaXY-7" edge="1">
          <mxGeometry relative="1" as="geometry" />
        </mxCell>
        <object label="Profile" id="vJwvaSScdZ3kgVCBI_No-3">
          <mxCell style="swimlane;fontStyle=1;align=center;verticalAlign=top;childLayout=stackLayout;horizontal=1;startSize=26;horizontalStack=0;resizeParent=1;resizeParentMax=0;resizeLast=0;collapsible=1;marginBottom=0;whiteSpace=wrap;html=1;" parent="1" vertex="1">
            <mxGeometry x="30" y="460" width="210" height="222" as="geometry" />
          </mxCell>
        </object>
        <mxCell id="vJwvaSScdZ3kgVCBI_No-4" value="&lt;font style=&quot;font-size: 10px;&quot;&gt;+ id: number (Auto) (PK)&lt;/font&gt;" style="text;strokeColor=none;fillColor=none;align=left;verticalAlign=top;spacingLeft=4;spacingRight=4;overflow=hidden;rotatable=0;points=[[0,0.5],[1,0.5]];portConstraint=eastwest;whiteSpace=wrap;html=1;" parent="vJwvaSScdZ3kgVCBI_No-3" vertex="1">
          <mxGeometry y="26" width="210" height="26" as="geometry" />
        </mxCell>
        <mxCell id="vJwvaSScdZ3kgVCBI_No-5" value="" style="line;strokeWidth=1;fillColor=none;align=left;verticalAlign=middle;spacingTop=-1;spacingLeft=3;spacingRight=3;rotatable=0;labelPosition=right;points=[];portConstraint=eastwest;strokeColor=inherit;" parent="vJwvaSScdZ3kgVCBI_No-3" vertex="1">
          <mxGeometry y="52" width="210" height="8" as="geometry" />
        </mxCell>
        <mxCell id="vJwvaSScdZ3kgVCBI_No-6" value="&lt;font style=&quot;font-size: 10px;&quot;&gt;+ imagen: *.jpg&lt;/font&gt;" style="text;strokeColor=none;fillColor=none;align=left;verticalAlign=top;spacingLeft=4;spacingRight=4;overflow=hidden;rotatable=0;points=[[0,0.5],[1,0.5]];portConstraint=eastwest;whiteSpace=wrap;html=1;" parent="vJwvaSScdZ3kgVCBI_No-3" vertex="1">
          <mxGeometry y="60" width="210" height="26" as="geometry" />
        </mxCell>
        <mxCell id="vJwvaSScdZ3kgVCBI_No-7" value="" style="line;strokeWidth=1;fillColor=none;align=left;verticalAlign=middle;spacingTop=-1;spacingLeft=3;spacingRight=3;rotatable=0;labelPosition=right;points=[];portConstraint=eastwest;strokeColor=inherit;" parent="vJwvaSScdZ3kgVCBI_No-3" vertex="1">
          <mxGeometry y="86" width="210" height="8" as="geometry" />
        </mxCell>
        <mxCell id="vJwvaSScdZ3kgVCBI_No-9" value="&lt;font style=&quot;font-size: 10px;&quot;&gt;+ usuario: text (PK)&lt;/font&gt;" style="text;strokeColor=none;fillColor=none;align=left;verticalAlign=top;spacingLeft=4;spacingRight=4;overflow=hidden;rotatable=0;points=[[0,0.5],[1,0.5]];portConstraint=eastwest;whiteSpace=wrap;html=1;" parent="vJwvaSScdZ3kgVCBI_No-3" vertex="1">
          <mxGeometry y="94" width="210" height="26" as="geometry" />
        </mxCell>
        <mxCell id="vJwvaSScdZ3kgVCBI_No-11" value="" style="line;strokeWidth=1;fillColor=none;align=left;verticalAlign=middle;spacingTop=-1;spacingLeft=3;spacingRight=3;rotatable=0;labelPosition=right;points=[];portConstraint=eastwest;strokeColor=inherit;" parent="vJwvaSScdZ3kgVCBI_No-3" vertex="1">
          <mxGeometry y="120" width="210" height="8" as="geometry" />
        </mxCell>
        <mxCell id="vJwvaSScdZ3kgVCBI_No-10" value="&lt;font style=&quot;font-size: 10px;&quot;&gt;+ email: email&lt;/font&gt;" style="text;strokeColor=none;fillColor=none;align=left;verticalAlign=top;spacingLeft=4;spacingRight=4;overflow=hidden;rotatable=0;points=[[0,0.5],[1,0.5]];portConstraint=eastwest;whiteSpace=wrap;html=1;" parent="vJwvaSScdZ3kgVCBI_No-3" vertex="1">
          <mxGeometry y="128" width="210" height="26" as="geometry" />
        </mxCell>
        <mxCell id="vJwvaSScdZ3kgVCBI_No-16" value="" style="line;strokeWidth=1;fillColor=none;align=left;verticalAlign=middle;spacingTop=-1;spacingLeft=3;spacingRight=3;rotatable=0;labelPosition=right;points=[];portConstraint=eastwest;strokeColor=inherit;" parent="vJwvaSScdZ3kgVCBI_No-3" vertex="1">
          <mxGeometry y="154" width="210" height="8" as="geometry" />
        </mxCell>
        <mxCell id="vJwvaSScdZ3kgVCBI_No-14" value="&lt;font style=&quot;font-size: 10px;&quot;&gt;+ celular: number&lt;/font&gt;" style="text;strokeColor=none;fillColor=none;align=left;verticalAlign=top;spacingLeft=4;spacingRight=4;overflow=hidden;rotatable=0;points=[[0,0.5],[1,0.5]];portConstraint=eastwest;whiteSpace=wrap;html=1;" parent="vJwvaSScdZ3kgVCBI_No-3" vertex="1">
          <mxGeometry y="162" width="210" height="26" as="geometry" />
        </mxCell>
        <mxCell id="vJwvaSScdZ3kgVCBI_No-17" value="" style="line;strokeWidth=1;fillColor=none;align=left;verticalAlign=middle;spacingTop=-1;spacingLeft=3;spacingRight=3;rotatable=0;labelPosition=right;points=[];portConstraint=eastwest;strokeColor=inherit;" parent="vJwvaSScdZ3kgVCBI_No-3" vertex="1">
          <mxGeometry y="188" width="210" height="8" as="geometry" />
        </mxCell>
        <mxCell id="vJwvaSScdZ3kgVCBI_No-8" value="&lt;font style=&quot;font-size: 10px;&quot;&gt;+ password: password&lt;/font&gt;" style="text;strokeColor=none;fillColor=none;align=left;verticalAlign=top;spacingLeft=4;spacingRight=4;overflow=hidden;rotatable=0;points=[[0,0.5],[1,0.5]];portConstraint=eastwest;whiteSpace=wrap;html=1;" parent="vJwvaSScdZ3kgVCBI_No-3" vertex="1">
          <mxGeometry y="196" width="210" height="26" as="geometry" />
        </mxCell>
        <object label="Setting" id="qj-4xgQQlzeq8Po7e8f2-3">
          <mxCell style="swimlane;fontStyle=1;align=center;verticalAlign=top;childLayout=stackLayout;horizontal=1;startSize=26;horizontalStack=0;resizeParent=1;resizeParentMax=0;resizeLast=0;collapsible=1;marginBottom=0;whiteSpace=wrap;html=1;" vertex="1" parent="1">
            <mxGeometry x="290" y="510" width="210" height="222" as="geometry" />
          </mxCell>
        </object>
        <mxCell id="qj-4xgQQlzeq8Po7e8f2-4" value="&lt;font style=&quot;font-size: 10px;&quot;&gt;+ id: number (Auto) (PK)&lt;/font&gt;" style="text;strokeColor=none;fillColor=none;align=left;verticalAlign=top;spacingLeft=4;spacingRight=4;overflow=hidden;rotatable=0;points=[[0,0.5],[1,0.5]];portConstraint=eastwest;whiteSpace=wrap;html=1;" vertex="1" parent="qj-4xgQQlzeq8Po7e8f2-3">
          <mxGeometry y="26" width="210" height="26" as="geometry" />
        </mxCell>
        <mxCell id="qj-4xgQQlzeq8Po7e8f2-5" value="" style="line;strokeWidth=1;fillColor=none;align=left;verticalAlign=middle;spacingTop=-1;spacingLeft=3;spacingRight=3;rotatable=0;labelPosition=right;points=[];portConstraint=eastwest;strokeColor=inherit;" vertex="1" parent="qj-4xgQQlzeq8Po7e8f2-3">
          <mxGeometry y="52" width="210" height="8" as="geometry" />
        </mxCell>
        <mxCell id="qj-4xgQQlzeq8Po7e8f2-6" value="&lt;font style=&quot;font-size: 10px;&quot;&gt;+ profileId: number (SK)&lt;/font&gt;" style="text;strokeColor=none;fillColor=none;align=left;verticalAlign=top;spacingLeft=4;spacingRight=4;overflow=hidden;rotatable=0;points=[[0,0.5],[1,0.5]];portConstraint=eastwest;whiteSpace=wrap;html=1;" vertex="1" parent="qj-4xgQQlzeq8Po7e8f2-3">
          <mxGeometry y="60" width="210" height="26" as="geometry" />
        </mxCell>
        <mxCell id="qj-4xgQQlzeq8Po7e8f2-7" value="" style="line;strokeWidth=1;fillColor=none;align=left;verticalAlign=middle;spacingTop=-1;spacingLeft=3;spacingRight=3;rotatable=0;labelPosition=right;points=[];portConstraint=eastwest;strokeColor=inherit;" vertex="1" parent="qj-4xgQQlzeq8Po7e8f2-3">
          <mxGeometry y="86" width="210" height="8" as="geometry" />
        </mxCell>
        <mxCell id="qj-4xgQQlzeq8Po7e8f2-8" value="&lt;font style=&quot;font-size: 10px;&quot;&gt;+ tema: string&lt;/font&gt;" style="text;strokeColor=none;fillColor=none;align=left;verticalAlign=top;spacingLeft=4;spacingRight=4;overflow=hidden;rotatable=0;points=[[0,0.5],[1,0.5]];portConstraint=eastwest;whiteSpace=wrap;html=1;" vertex="1" parent="qj-4xgQQlzeq8Po7e8f2-3">
          <mxGeometry y="94" width="210" height="26" as="geometry" />
        </mxCell>
        <mxCell id="qj-4xgQQlzeq8Po7e8f2-9" value="" style="line;strokeWidth=1;fillColor=none;align=left;verticalAlign=middle;spacingTop=-1;spacingLeft=3;spacingRight=3;rotatable=0;labelPosition=right;points=[];portConstraint=eastwest;strokeColor=inherit;" vertex="1" parent="qj-4xgQQlzeq8Po7e8f2-3">
          <mxGeometry y="120" width="210" height="8" as="geometry" />
        </mxCell>
        <mxCell id="qj-4xgQQlzeq8Po7e8f2-10" value="&lt;font style=&quot;font-size: 10px;&quot;&gt;+ idioma: string&lt;/font&gt;" style="text;strokeColor=none;fillColor=none;align=left;verticalAlign=top;spacingLeft=4;spacingRight=4;overflow=hidden;rotatable=0;points=[[0,0.5],[1,0.5]];portConstraint=eastwest;whiteSpace=wrap;html=1;" vertex="1" parent="qj-4xgQQlzeq8Po7e8f2-3">
          <mxGeometry y="128" width="210" height="26" as="geometry" />
        </mxCell>
        <mxCell id="qj-4xgQQlzeq8Po7e8f2-11" value="" style="line;strokeWidth=1;fillColor=none;align=left;verticalAlign=middle;spacingTop=-1;spacingLeft=3;spacingRight=3;rotatable=0;labelPosition=right;points=[];portConstraint=eastwest;strokeColor=inherit;" vertex="1" parent="qj-4xgQQlzeq8Po7e8f2-3">
          <mxGeometry y="154" width="210" height="8" as="geometry" />
        </mxCell>
        <mxCell id="qj-4xgQQlzeq8Po7e8f2-12" value="&lt;font style=&quot;font-size: 10px;&quot;&gt;+ notificacionesAcciones: boolean&lt;/font&gt;" style="text;strokeColor=none;fillColor=none;align=left;verticalAlign=top;spacingLeft=4;spacingRight=4;overflow=hidden;rotatable=0;points=[[0,0.5],[1,0.5]];portConstraint=eastwest;whiteSpace=wrap;html=1;" vertex="1" parent="qj-4xgQQlzeq8Po7e8f2-3">
          <mxGeometry y="162" width="210" height="26" as="geometry" />
        </mxCell>
        <mxCell id="qj-4xgQQlzeq8Po7e8f2-13" value="" style="line;strokeWidth=1;fillColor=none;align=left;verticalAlign=middle;spacingTop=-1;spacingLeft=3;spacingRight=3;rotatable=0;labelPosition=right;points=[];portConstraint=eastwest;strokeColor=inherit;" vertex="1" parent="qj-4xgQQlzeq8Po7e8f2-3">
          <mxGeometry y="188" width="210" height="8" as="geometry" />
        </mxCell>
        <mxCell id="qj-4xgQQlzeq8Po7e8f2-14" value="&lt;font style=&quot;font-size: 10px;&quot;&gt;+ notificaciones: boolean&lt;/font&gt;" style="text;strokeColor=none;fillColor=none;align=left;verticalAlign=top;spacingLeft=4;spacingRight=4;overflow=hidden;rotatable=0;points=[[0,0.5],[1,0.5]];portConstraint=eastwest;whiteSpace=wrap;html=1;" vertex="1" parent="qj-4xgQQlzeq8Po7e8f2-3">
          <mxGeometry y="196" width="210" height="26" as="geometry" />
        </mxCell>
      </root>
    </mxGraphModel>
  </diagram>
</mxfile>
